<mxfile host="app.diagrams.net" agent="Mozilla/5.0 (Windows NT 10.0; Win64; x64; rv:129.0) Gecko/20100101 Firefox/129.0" version="24.7.6">
  <diagram name="Page-1" id="s9DhhEKkHI1Hrcsn04LT">
    <mxGraphModel dx="2954" dy="1134" grid="1" gridSize="10" guides="1" tooltips="1" connect="1" arrows="1" fold="1" page="1" pageScale="1" pageWidth="850" pageHeight="1100" math="0" shadow="0">
      <root>
        <mxCell id="0" />
        <mxCell id="1" parent="0" />
        <mxCell id="FgSaLxlI-9D3QFIh1F97-3" value="" style="edgeStyle=orthogonalEdgeStyle;rounded=0;orthogonalLoop=1;jettySize=auto;html=1;" edge="1" parent="1" source="FgSaLxlI-9D3QFIh1F97-1" target="FgSaLxlI-9D3QFIh1F97-2">
          <mxGeometry relative="1" as="geometry" />
        </mxCell>
        <mxCell id="FgSaLxlI-9D3QFIh1F97-1" value="Historical Football Data" style="rounded=0;whiteSpace=wrap;html=1;" vertex="1" parent="1">
          <mxGeometry x="365" y="120" width="120" height="60" as="geometry" />
        </mxCell>
        <mxCell id="FgSaLxlI-9D3QFIh1F97-5" value="" style="edgeStyle=orthogonalEdgeStyle;rounded=0;orthogonalLoop=1;jettySize=auto;html=1;" edge="1" parent="1" source="FgSaLxlI-9D3QFIh1F97-2" target="FgSaLxlI-9D3QFIh1F97-4">
          <mxGeometry relative="1" as="geometry" />
        </mxCell>
        <mxCell id="FgSaLxlI-9D3QFIh1F97-2" value="Job to process data into model" style="rounded=0;whiteSpace=wrap;html=1;" vertex="1" parent="1">
          <mxGeometry x="365" y="260" width="120" height="60" as="geometry" />
        </mxCell>
        <mxCell id="FgSaLxlI-9D3QFIh1F97-4" value="Website that reads model and presents data to the user" style="rounded=0;whiteSpace=wrap;html=1;" vertex="1" parent="1">
          <mxGeometry x="365" y="400" width="120" height="60" as="geometry" />
        </mxCell>
      </root>
    </mxGraphModel>
  </diagram>
</mxfile>
